# xmcd CD database file
# Copyright (C) 1993-1998 Ti Kan
#
# Track frame offsets:
#	182
#	16357
#	33857
#	46182
#	59462
#	74807
#	87350
#	102740
#	114485
#	131420
#	149732
#	163720
#	179655
#	194040
#	209545
#
# Disc length: 3061 seconds
#
# Revision: 1
# Processed by: cddbd v1.4b41PL1 Copyright (c) Steve Scherf et al.
# Submitted via: NotifyCDPlayer(CDDB) 1.50
#
DISCID=ee0bf30f
DTITLE=The Delaney Brothers - Tina's Waltz
DYEAR=1900
DGENRE=
TTITLE0=Old Man In the Shanty
TTITLE1=I'll Dry Every Tear That Falls
TTITLE2=I'm Gonna Make It After All
TTITLE3=Pyle Driver
TTITLE4=Wasted on the Way
TTITLE5=Be Good to My Little Baby Girl
TTITLE6=Tina's Waltz
TTITLE7=Lower On the Hog
TTITLE8=Stop In the road
TTITLE9=Just a Little Man
TTITLE10=The Race Is On
TTITLE11=These Old Pictures
TTITLE12=Who Needs You
TTITLE13=Touch of God's Hand
TTITLE14=Cherokee Run
EXTD=John Delaney - Mandolin, Lead and Harmony vocals\nRay Delaney - Guitar, L
EXTD=ead and Harmony Vocals\nJim Treat - 5 String Bass, Acoustic Bass\nScott C
EXTD=orbett - Banjo, Harmony Vocals\nTracey June - Fiddle, Lead Guitar, Lead
EXTD=and Harmony Vocals\n\nProduced by Delaney Brothers Bluegrass\nRecorded a
EXTD=t Aircom Studios, Syracuse, NY - April 1 and 2, 1995\n\nFor Information: 
EXTD=\nDelaney Brothers Bluegrass\n58 Floral Ave.\nCortland, NY 13045\n607 7
EXTD=53 8365
EXTT0=
EXTT1=
EXTT2=
EXTT3=
EXTT4=
EXTT5=
EXTT6=
EXTT7=
EXTT8=
EXTT9=
EXTT10=
EXTT11=
EXTT12=
EXTT13=
EXTT14=
PLAYORDER=
